<svg width="35" height="35" viewBox="0 0 35 35" fill="none" xmlns="http://www.w3.org/2000/svg">
<path d="M29.1667 10.2084H5.83334C4.22251 10.2084 2.91667 11.5142 2.91667 13.125V27.7084C2.91667 29.3192 4.22251 30.625 5.83334 30.625H29.1667C30.7775 30.625 32.0833 29.3192 32.0833 27.7084V13.125C32.0833 11.5142 30.7775 10.2084 29.1667 10.2084Z" stroke="#D6002F" stroke-width="2" stroke-linecap="round" stroke-linejoin="round"/>
<path d="M23.3333 30.625V7.29167C23.3333 6.51812 23.0261 5.77625 22.4791 5.22927C21.9321 4.68229 21.1902 4.375 20.4167 4.375H14.5833C13.8098 4.375 13.0679 4.68229 12.5209 5.22927C11.974 5.77625 11.6667 6.51812 11.6667 7.29167V30.625" stroke="#D6002F" stroke-width="2" stroke-linecap="round" stroke-linejoin="round"/>
</svg>
