<svg width="40" height="40" viewBox="0 0 40 40" fill="none" xmlns="http://www.w3.org/2000/svg">
<clipPath id="clip0">
<rect width="40" height="40" fill="white"/>
</clipPath>
<path d="M26.1568 18.2026L17.3199 13.3674C16.8118 13.0894 16.2112 13.0998 15.7132 13.3949C15.2148 13.6903 14.9176 14.2122 14.9176 14.7914V24.3788C14.9176 24.9553 15.213 25.4762 15.708 25.7719C15.9665 25.9263 16.253 26.0039 16.5402 26.0039C16.8032 26.0039 17.0669 25.9388 17.3095 25.8082L26.1468 21.0563C26.6714 20.7741 26.9988 20.2287 27.0013 19.6327C27.0034 19.0367 26.6799 18.4889 26.1568 18.2026ZM17.2616 23.1727V16.0072L23.8662 19.6211L17.2616 23.1727Z" fill="#D6002F"/>
<path d="M39.7057 11.9943L39.7038 11.976C39.6699 11.6541 39.3327 8.79028 37.9405 7.33368C36.3313 5.62042 34.507 5.41229 33.6296 5.3125C33.557 5.30426 33.4905 5.29663 33.431 5.2887L33.3611 5.28137C28.073 4.89685 20.0869 4.84436 20.0069 4.84406L19.9999 4.84375L19.9929 4.84406C19.9129 4.84436 11.9268 4.89685 6.59116 5.28137L6.52067 5.2887C6.4639 5.29633 6.40134 5.30334 6.33329 5.31128C5.46598 5.41138 3.66118 5.61981 2.04742 7.39502C0.721433 8.83606 0.338133 11.6385 0.298766 11.9534L0.294188 11.9943C0.282286 12.1283 0 15.3177 0 18.5196V21.5128C0 24.7147 0.282286 27.9041 0.294188 28.0383L0.296325 28.0585C0.330199 28.3752 0.667112 31.1865 2.05291 32.6437C3.56597 34.2996 5.4791 34.5187 6.50815 34.6365C6.67081 34.6552 6.81089 34.671 6.90641 34.6878L6.99887 34.7006C10.0521 34.9911 19.6252 35.1343 20.031 35.1401L20.0433 35.1404L20.0555 35.1401C20.1354 35.1398 28.1212 35.0873 33.4093 34.7028L33.4792 34.6954C33.546 34.6866 33.6211 34.6786 33.7035 34.6701C34.5659 34.5786 36.3609 34.3884 37.9524 32.6373C39.2784 31.196 39.662 28.3936 39.7011 28.0789L39.7057 28.038C39.7176 27.9037 40.0001 24.7147 40.0001 21.5128V18.5196C39.9998 15.3177 39.7176 12.1286 39.7057 11.9943ZM37.6558 21.5128C37.6558 24.4763 37.397 27.5284 37.3726 27.8085C37.2731 28.5803 36.8688 30.3534 36.2227 31.0556C35.2266 32.1515 34.2034 32.2601 33.4563 32.3392C33.366 32.3486 33.2823 32.3578 33.2067 32.3672C28.0919 32.7371 20.4073 32.7939 20.0533 32.796C19.6563 32.7902 10.2233 32.6459 7.26315 32.3709C7.11148 32.3462 6.9476 32.3273 6.77488 32.3077C5.89872 32.2073 4.69938 32.07 3.77715 31.0556L3.75548 31.0324C3.12072 30.3711 2.72796 28.7131 2.62816 27.8177C2.60955 27.6059 2.34405 24.5178 2.34405 21.5128V18.5196C2.34405 15.5594 2.60222 12.5107 2.62725 12.2247C2.74596 11.3156 3.15795 9.64996 3.77715 8.97675C4.80375 7.8476 5.88621 7.72247 6.60215 7.63977C6.67051 7.63184 6.73429 7.62451 6.79319 7.61688C11.9824 7.24518 19.7222 7.18994 19.9999 7.18781C20.2776 7.18964 28.0147 7.24518 33.1578 7.61688C33.221 7.62482 33.29 7.63275 33.3641 7.6413C34.1005 7.72522 35.2135 7.85217 36.2349 8.94165L36.2444 8.95172C36.8791 9.61304 37.2719 11.3 37.3717 12.2134C37.3894 12.4133 37.6558 15.5081 37.6558 18.5196V21.5128Z" fill="#D6002F"/>

<defs>

</defs>
</svg>
